<svg xmlns="http://www.w3.org/2000/svg" height="24" width="24" viewBox="0 0 48 48"><path d="M1.667 31.667V7.083h2.791v16.5h14.25V10.542h13.375q2.584 0 4.417 1.833 1.833 1.833 1.833 4.417v14.875h-2.791v-5.292H4.458v5.292Zm9.708-10.25q-1.917 0-3.25-1.334-1.333-1.333-1.333-3.291 0-1.917 1.333-3.25 1.333-1.334 3.25-1.334 1.958 0 3.292 1.334Q16 14.875 16 16.792q0 1.958-1.333 3.291-1.334 1.334-3.292 1.334Zm10.083 2.166h14.084v-6.791q0-1.417-1.021-2.438-1.021-1.021-2.438-1.021H21.458Zm-10.083-4.958q.792 0 1.313-.521.52-.521.52-1.312 0-.75-.52-1.292-.521-.542-1.313-.542-.75 0-1.292.542-.541.542-.541 1.292 0 .791.541 1.312.542.521 1.292.521Zm0-1.833Zm10.083-3.459v10.25Z"/></svg>