<svg xmlns="http://www.w3.org/2000/svg" height="24" width="24" viewBox="0 0 48 48"><path d="M11.125 35q-1.167 0-1.979-.812-.813-.813-.813-1.98V13.042q0-1.25.896-2.146.896-.896 2.146-.896H15V4.708q0-.666.604-1.02.604-.355 1.354-.355h6.084q.75 0 1.354.355.604.354.604 1.02V10h3.875q1.167 0 1.979.812.813.813.813 1.98v19.416q0 1.167-.813 1.98-.812.812-1.979.812 0 .708-.479 1.188-.479.479-1.188.479-.708 0-1.187-.479-.479-.48-.479-1.188H14.458q0 .708-.479 1.188-.479.479-1.187.479-.709 0-1.188-.479-.479-.48-.479-1.188Zm5.833-25h6.084V5.292h-6.084Zm-5.833 22.208h17.75V12.792h-17.75v19.416Zm2.5-2.208h1.917V15h-1.917Zm5.417 0h1.916V15h-1.916Zm5.416 0h1.917V15h-1.917Zm-13.333 2.208V12.792v19.416Z"/></svg>